<?xml version="1.0" standalone="no"?>
<!DOCTYPE svg PUBLIC "-//W3C//DTD SVG 1.1//EN" "http://www.w3.org/Graphics/SVG/1.1/DTD/svg11.dtd" >
<svg xmlns="http://www.w3.org/2000/svg" xmlns:xlink="http://www.w3.org/1999/xlink" version="1.1">
<metadata>
Created by FontForge 20170731 at Sun Jan 15 22:11:28 2012
 By Aleksey,,,
</metadata>
<defs>
<font id="Belgrad-Bold" horiz-adv-x="833" >
  <font-face 
    font-family="Belgrad"
    font-weight="700"
    font-stretch="normal"
    units-per-em="1000"
    panose-1="0 0 0 0 0 0 0 0 0 0"
    ascent="750"
    descent="-250"
    cap-height="742"
    bbox="-112 -138 869 873"
    underline-thickness="50"
    underline-position="-150"
    unicode-range="U+000D-2212"
  />
<missing-glyph horiz-adv-x="406" 
 />
    <glyph glyph-name=".notdef" horiz-adv-x="406" 
 />
    <glyph glyph-name=".null" horiz-adv-x="0" 
 />
    <glyph glyph-name="nonmarkingreturn" unicode="&#xd;" horiz-adv-x="406" 
 />
    <glyph glyph-name="NULL" horiz-adv-x="0" 
 />
    <glyph glyph-name="NULL" horiz-adv-x="0" 
 />
    <glyph glyph-name="space" unicode=" " horiz-adv-x="267" 
 />
    <glyph glyph-name="exclam" unicode="!" horiz-adv-x="319" 
d="M142 223h-115v519h115v-519zM164 79q0 33 -23 56t-56 23t-56 -23t-23 -56t23 -56t56 -23t56 23t23 56z" />
    <glyph glyph-name="quotedbl" unicode="&#x22;" horiz-adv-x="233" 
d="M-17 502h-95v240h95v-240zM142 502h-95v240h95v-240z" />
    <glyph glyph-name="dollar" unicode="$" horiz-adv-x="625" 
d="M394 215q0 -73 -39.5 -122t-107.5 -63v-62h-100v64q-88 24 -141 128l96 50q22 -42 45 -59v186q-26 13 -52.5 30.5t-47.5 41t-34 53.5t-13 69q0 74 39.5 123t107.5 63v59h100v-62q87 -23 141 -127l-96 -50q-11 22 -22.5 36t-22.5 22v-185q27 -13 53 -30.5t47 -41.5t34 -54
t13 -69zM108 531q0 -5 0.5 -12t4.5 -15.5t12 -18.5t22 -21v140q-39 -18 -39 -73zM247 143q39 18 39 72q0 11 -5 28t-34 40v-140z" />
    <glyph glyph-name="ampersand" unicode="&#x26;" 
d="M752 337q-1 -2 -6 -10.5t-14.5 -21t-23 -26.5t-31.5 -27q-35 -25 -73.5 -35t-79.5 -5q-9 -53 -35 -101q-29 -52 -73 -84t-99 -40q-21 -3 -42 -3q-52 0 -101 18t-88 51q-42 36 -64 83t-22 100q0 145 113 221q-26 36 -35 84.5t17 106.5q16 35 44 60.5t64 38.5q76 28 148 -6
q47 -22 75 -68.5t27 -101.5l-116 3q0 20 -10 37t-25 25q-30 13 -59 2t-43 -39q-11 -23 -8 -42t10.5 -33t16.5 -22.5t12 -9.5l35 -9v-82l-38 -14q-57 -22 -84.5 -58t-27.5 -93q0 -35 15 -58t30 -37q28 -23 65 -34t74 -5q34 5 55.5 25t32.5 40q20 37 23 81q-45 13 -81 -10
q-17 -11 -25 -23t-8 -13l-104 52q1 2 5.5 10t13.5 19.5t22 25t31 25.5q17 11 39.5 20.5t51 12.5t63 -2.5t73.5 -23.5q65 -31 114 3q21 14 32 30t12 16h-1z" />
    <glyph glyph-name="quotesingle" unicode="'" horiz-adv-x="343" 
d="M207 502h-95v240h95v-240z" />
    <glyph glyph-name="parenleft" unicode="(" 
 />
    <glyph glyph-name="parenright" unicode=")" 
 />
    <glyph glyph-name="asterisk" unicode="*" horiz-adv-x="305" 
d="M217 676l-58 -21l35 -52l-52 -34l-34 51l-33 -51l-52 34l35 52l-58 21l20 58l58 -20v62h61v-62l57 20l21 -58v0z" />
    <glyph glyph-name="plus" unicode="+" horiz-adv-x="632" 
d="M476 417v-117h-179v-179h-118v179h-179v117h179v179h118v-179h179v0z" />
    <glyph glyph-name="comma" unicode="," horiz-adv-x="178" 
d="M41 -127h-115v240h115v-240v0z" />
    <glyph glyph-name="hyphen" unicode="-" horiz-adv-x="449" 
d="M292 250h-292v117h292v-117v0z" />
    <glyph glyph-name="period" unicode="." horiz-adv-x="302" 
d="M139 69q0 -35 -25 -60t-60 -25t-60 25t-25 60t25 60t60 25t60 -25t25 -60z" />
    <glyph glyph-name="zero" unicode="0" horiz-adv-x="645" 
d="M246 759q51 0 96 -19.5t78.5 -52.5t53 -78t19.5 -96v-284q0 -51 -19.5 -96t-53 -78t-78.5 -52.5t-96 -19.5t-95.5 19.5t-78 52.5t-53 78t-19.5 96v284q0 51 19.5 96t53 78t78 52.5t95.5 19.5zM246 641q-27 0 -50 -10t-40.5 -27.5t-27.5 -40.5t-10 -50v-239q14 37 36.5 75
t58.5 74q35 34 52 68t24 63t6 49.5t-2 28.5q-21 9 -47 9zM246 101q27 0 50.5 10t41 27.5t27.5 40.5t10 50v218q-14 -26 -33 -53.5t-46 -54.5q-32 -32 -50 -66t-26.5 -66t-10 -58.5t-0.5 -42.5q20 -5 37 -5z" />
    <glyph glyph-name="one" unicode="1" horiz-adv-x="510" 
d="M284 0h-119v491l-81 -79l-84 85l284 279v-776v0z" />
    <glyph glyph-name="two" unicode="2" horiz-adv-x="594" 
d="M461 0h-461v62q1 27 10 65t31.5 80t60.5 84.5t96 80.5q44 28 69.5 51t38 42t16 34t3.5 28q0 37 -8.5 59t-22 33.5t-30.5 15t-35 3.5q-28 0 -48 -11t-33.5 -28t-20 -39t-6.5 -44h-121q0 52 17.5 96.5t48 77t72.5 51t91 18.5q63 0 102 -21t59 -43q56 -62 56 -168
q0 -74 -42.5 -134t-139.5 -122q-54 -35 -83.5 -75t-40.5 -75h321v-121z" />
    <glyph glyph-name="three" unicode="3" horiz-adv-x="594" 
d="M233 -16q-48 0 -90.5 18.5t-74 50t-50 74t-18.5 90.5h121q0 -23 9 -43.5t24 -35.5t35.5 -24t43.5 -9t43.5 9t36 24t24.5 35.5t9 43.5t-9 43.5t-24.5 36t-36 24.5t-43.5 9h-60v122h60q39 0 66.5 27t27.5 66q0 19 -7.5 36t-20 29.5t-30 20t-36.5 7.5t-36 -7.5t-29.5 -20
t-20 -29.5t-7.5 -36h-121q0 44 17 83t46 68t68 46t83 17t83 -17t68 -46t46 -68t17 -83q0 -45 -16.5 -83.5t-45.5 -67.5q38 -32 60 -77.5t22 -99.5q0 -48 -18.5 -90.5t-50 -74t-74.5 -50t-91 -18.5z" />
    <glyph glyph-name="four" unicode="4" horiz-adv-x="643" 
d="M421 0h-121v150h-345v51q0 4 0.5 17t5 33t15.5 45.5t31 54t51 58.5t77 59l3 2q39 22 66 50.5t45 58.5t28 59.5t15.5 52.5t6.5 37.5l1 14.5h121v-482h64v-111h-64v-150zM91 261h209v193q-20 -22 -45 -47t-56 -42q-43 -28 -68.5 -54.5t-39.5 -49.5z" />
    <glyph glyph-name="five" unicode="5" horiz-adv-x="722" 
d="M314 -15q-56 0 -105 21t-86 57.5t-58 85.5t-21 105h121q0 -31 11.5 -58t32 -47.5t47.5 -32t58 -11.5q30 0 56.5 11.5t46.5 32t31.5 47.5t11.5 58q0 28 -9.5 55.5t-28 49.5t-45.5 35.5t-63 13.5q-38 0 -62 -2t-41.5 -6t-30.5 -9.5t-28 -11.5q-19 -8 -38 -18t-35 -20
q-18 -11 -35 -23l20 127l62 297h367v-111h-269l-25 -115q23 4 53 8.5t62 4.5q56 0 104.5 -21.5t84.5 -58.5t57 -87t21 -108q0 -54 -20 -103t-58 -87t-86.5 -58.5t-102.5 -20.5z" />
    <glyph glyph-name="six" unicode="6" horiz-adv-x="708" 
d="M279 483q46 -5 86.5 -26.5t70.5 -55t47.5 -76.5t17.5 -91q0 -52 -20 -97.5t-54 -79.5t-79.5 -53.5t-97.5 -19.5t-97.5 19.5t-79.5 53.5t-53.5 79.5t-19.5 97.5q0 47 15.5 88t43.5 73l276 347h150zM250 104q27 0 51 10t41.5 28t28 41.5t10.5 50.5t-10.5 51t-28 41.5
t-41.5 28t-51 10.5t-50.5 -10.5t-41.5 -28t-28 -41.5t-10 -51t10 -50.5t28 -41.5t41.5 -28t50.5 -10z" />
    <glyph glyph-name="seven" unicode="7" horiz-adv-x="573" 
d="M149 0h-121l1 112q0 25 7 67.5t27 93t56 104t96 100.5q54 43 77 82.5t31 72.5h-323v110h442v-60q0 -39 -6.5 -76t-23.5 -73.5t-48 -73.5t-80 -76q-44 -35 -70.5 -75t-41 -77.5t-19 -69.5t-4.5 -51v-110z" />
    <glyph glyph-name="eight" unicode="8" horiz-adv-x="604" 
d="M386 405q41 -33 64.5 -80.5t23.5 -103.5q0 -49 -18.5 -92t-51 -75.5t-75.5 -51t-92 -18.5t-92 18.5t-75.5 51t-51 75.5t-18.5 92q0 56 23.5 103.5t64.5 80.5q-28 29 -44 66t-16 80t16.5 80.5t45 66t66.5 45t81 16.5t81 -16.5t66.5 -45t45 -66t16.5 -80.5t-16 -80t-44 -66
zM237 641q-38 0 -64.5 -26t-26.5 -64q0 -19 7 -35.5t19.5 -29t29 -19.5t35.5 -7t35.5 7t29 19.5t19.5 29t7 35.5q0 38 -26.5 64t-64.5 26zM237 101q25 0 46.5 9.5t37.5 26t25.5 38t9.5 46.5t-9.5 46.5t-25.5 37.5t-37.5 25.5t-46.5 9.5t-46.5 -9.5t-37.5 -25.5t-25.5 -37.5
t-9.5 -46.5t9.5 -46.5t25.5 -38t37.5 -26t46.5 -9.5z" />
    <glyph glyph-name="nine" unicode="9" horiz-adv-x="615" 
d="M463 528q0 -32 -7 -59q-5 -25 -15.5 -49t-27.5 -48.5t-42 -49.5t-60 -53q-42 -34 -68 -71.5t-40.5 -73.5t-19.5 -68.5t-5 -55.5h-120q0 26 4.5 61.5t17 76t35 83t58.5 83.5q-37 10 -68.5 31t-55 50.5t-36.5 65.5t-13 77q0 48 18 90t49.5 73.5t74 49.5t90.5 18
q45 0 84.5 -16t70.5 -44t50.5 -66t24.5 -81h1v-11v-13zM120 528q0 -23 9 -43.5t24 -35.5t35.5 -23.5t43.5 -8.5q38 0 68 23.5t39 59.5q3 18 3 38q-2 21 -11.5 39.5t-24 32t-34 21.5t-40.5 8q-23 0 -43.5 -9t-35.5 -24t-24 -35t-9 -43z" />
    <glyph glyph-name="colon" unicode=":" 
d="M170 69q0 -35 -25 -60t-60 -25t-60 25t-25 60t25 60t60 25t60 -25t25 -60zM170 415q0 -35 -25 -60t-60 -25t-60 25t-25 60t25 60t60 25t60 -25t25 -60z" />
    <glyph glyph-name="equal" unicode="=" horiz-adv-x="622" 
d="M408 151h-352v120h352v-120v0zM408 361h-352v120h352v-120v0z" />
    <glyph glyph-name="question" unicode="?" horiz-adv-x="583" 
d="M290 79q0 -33 -23 -56t-56 -23t-56 23t-23 56t23 56t56 23t56 -23t23 -56zM224 643q-22 0 -41.5 -8.5t-34.5 -23t-23.5 -34.5t-8.5 -42h-116q0 46 17.5 87t48 71.5t71.5 48t87 17.5q89 0 154 -59q30 -29 46.5 -64t16.5 -72q0 -26 -3.5 -53t-16 -55t-37.5 -57t-68 -59
q-18 -14 -28.5 -27t-15 -27t-5.5 -29.5t-1 -33.5h-116q0 21 1.5 47t11 53.5t29.5 56t56 55.5l1 1q28 19 43.5 35.5t23 31.5t8.5 29.5t1 31.5q0 12 -7 26t-20 25.5t-32 19.5t-42 8z" />
    <glyph glyph-name="A" unicode="A" horiz-adv-x="758" 
d="M420 184h-270l-83 -184h-128l347 775l347 -775h-128zM373 291l-87 190l-87 -190h174z" />
    <glyph glyph-name="B" unicode="B" horiz-adv-x="639" 
d="M452 346q38 -49 46 -110.5t-16 -115.5q-23 -52 -68.5 -83.5t-107.5 -36.5h-5h-98h-203v742h239q52 0 94 -21t71 -60q29 -40 36.5 -87.5t-7.5 -93.5q-13 -40 -36 -67q5 -7 14.5 -18t18.5 -22q11 -13 22 -27zM307 596q-8 11 -24 21t-44 10h-118v-266q13 11 24 20t22 17.5
t25 15.5t33 15q41 16 62 33t31 47q3 9 4 20.5t-0.5 23.5t-5 23.5t-9.5 19.5zM372 168q11 24 6.5 52.5t-21.5 50.5q-17 21 -31 38t-26 31q-5 -3 -11 -5.5t-12 -5.5q-36 -17 -69.5 -38t-60.5 -62q-12 -20 -16 -51t-5 -58h172q55 6 74 48z" />
    <glyph glyph-name="C" unicode="C" horiz-adv-x="777" 
d="M374 -16q-77 0 -145 30.5t-119 83t-80.5 123t-29.5 150.5t29.5 151t80.5 123.5t119 83t145 30.5q78 0 147.5 -31t123.5 -90l-89 -81q-36 39 -83 60t-99 21q-53 0 -99 -21t-80 -57t-54 -85t-20 -104t20 -103.5t54 -84.5t80 -57t99 -21q52 0 98.5 20.5t82.5 59.5l89 -81
q-54 -59 -123 -89.5t-147 -30.5z" />
    <glyph glyph-name="D" unicode="D" horiz-adv-x="652" 
d="M0 0v742h154q41 -1 96.5 -12.5t110.5 -46.5q26 -16 53 -41.5t48.5 -63t35.5 -88.5t14 -118t-14 -118t-35.5 -89t-48.5 -64t-53 -42q-27 -17 -55.5 -28.5t-55.5 -18t-51.5 -9.5t-44.5 -3h-154zM121 621v-501q18 0 23.5 0.5t6.5 0.5q41 1 83.5 12t77.5 39t57 76t22 124
q0 75 -22 123t-57 76t-77.5 38.5t-83.5 11.5h-28h-2z" />
    <glyph glyph-name="E" unicode="E" horiz-adv-x="639" 
d="M465 632h-279v-170h213v-107h-213v-245h279v-110h-399v355h-66v107h66v280h399v-110v0z" />
    <glyph glyph-name="F" unicode="F" horiz-adv-x="584" 
d="M459 631h-280v-171h222v-107h-222v-353h-120v353h-59v107h59v282h400v-111v0z" />
    <glyph glyph-name="G" unicode="G" horiz-adv-x="889" 
d="M371 -16q-77 0 -144.5 30.5t-117.5 83t-79.5 123.5t-29.5 151t29.5 150.5t79.5 123t117.5 83t144.5 30.5q78 0 148.5 -32t123.5 -91l-90 -80q-36 40 -82.5 61t-99.5 21q-52 0 -97.5 -21t-79.5 -57t-53.5 -84.5t-19.5 -103.5q0 -56 19.5 -104.5t53.5 -84.5t79.5 -57
t97.5 -21q54 0 98.5 17t76 48.5t49 75.5t19.5 99h-75q-69 0 -94 -45q-5 -9 -7.5 -17t-4.5 -15q-2 -8 -3 -15l-121 3q0 2 1 12t4 24t9 32t17 36q29 51 80 75t119 24h196v-105q0 -84 -27.5 -153t-80.5 -120q-49 -48 -115 -72.5t-141 -24.5z" />
    <glyph glyph-name="H" unicode="H" horiz-adv-x="750" 
d="M426 742h121v-742h-121v349h-305v-349h-121v742h121v-282h305v282v0z" />
    <glyph glyph-name="I" unicode="I" horiz-adv-x="334" 
d="M163 0h-121v742h121v-742v0z" />
    <glyph glyph-name="J" unicode="J" horiz-adv-x="465" 
d="M122 -14q-44 0 -80.5 15t-62.5 42.5t-40.5 66t-14.5 85.5h121q0 -88 77 -88q19 0 31 9.5t18.5 24.5t9 33.5t2.5 36.5v531h121v-531q0 -51 -13 -93t-36.5 -71t-57 -45t-75.5 -16z" />
    <glyph glyph-name="K" unicode="K" horiz-adv-x="667" 
d="M432 0l-237 378q-46 -37 -64 -95q-4 -13 -6 -24.5t-4 -21.5v-237h-121v742h121v-275q17 13 36.5 28.5t42.5 25.5q48 23 74.5 59.5t38.5 71.5t14 61.5t2 28.5h121q0 -8 -2.5 -41.5t-17 -79t-45 -95t-85.5 -87.5l275 -439h-143z" />
    <glyph glyph-name="L" unicode="L" horiz-adv-x="472" 
d="M317 0h-317v742h121v-631h196v-111v0z" />
    <glyph glyph-name="M" unicode="M" horiz-adv-x="931" 
d="M417 -32l-177 440l-116 -408h-124l207 775l210 -513l210 513l207 -775h-124l-116 408l-177 -440v0z" />
    <glyph glyph-name="N" unicode="N" horiz-adv-x="760" 
d="M593 -32l-479 516v-484h-114v776l479 -517v483h114v-774v0z" />
    <glyph glyph-name="O" unicode="O" horiz-adv-x="865" 
d="M336 -16q-80 0 -151 30.5t-123.5 83t-83 123.5t-30.5 151t30.5 150.5t83 123t123.5 83t151 30.5t150.5 -30.5t123 -83t83 -123t30.5 -150.5t-30.5 -151t-83 -123.5t-123 -83t-150.5 -30.5zM336 638q-56 0 -104.5 -21t-84.5 -57t-57 -84.5t-21 -103.5q0 -56 21 -104.5
t57 -84.5t84.5 -57t104.5 -21q55 0 103.5 21t84.5 57t57 84.5t21 104.5q0 55 -21 103.5t-57 84.5t-84.5 57t-103.5 21z" />
    <glyph glyph-name="P" unicode="P" horiz-adv-x="666" 
d="M163 0h-122v742h273q38 -3 67 -11.5t50.5 -21t37 -27t25.5 -28.5q26 -35 34.5 -79t-2.5 -92q-10 -41 -30.5 -69t-47 -46.5t-55.5 -30.5t-56 -22q-43 -16 -81.5 -34.5t-67.5 -58.5q-9 -12 -14.5 -30.5t-7.5 -37.5t-2.5 -37.5t-0.5 -30.5v-86zM163 620v-262q33 23 67 37.5
t65 25.5q28 10 47.5 18t33 17t21.5 20t12 27q4 15 2 38.5t-15 40.5q-24 33 -88 38h-145z" />
    <glyph glyph-name="Q" unicode="Q" horiz-adv-x="945" 
d="M704 -32l-94 86q-48 -33 -103.5 -51.5t-118.5 -18.5q-80 0 -151 30.5t-123.5 83t-83 123.5t-30.5 151t30.5 150.5t83 123t123.5 83t151 30.5t151 -30.5t123.5 -83t83 -123t30.5 -150.5q0 -66 -21 -125.5t-58 -108.5l89 -82zM388 105q71 0 131 34l-128 120l82 89l135 -127
q23 32 35 70.5t12 80.5q0 55 -21 103.5t-57.5 85t-85 57.5t-103.5 21t-103.5 -21t-85 -57.5t-57.5 -85t-21 -103.5q0 -56 21 -104.5t57.5 -84.5t85 -57t103.5 -21z" />
    <glyph glyph-name="R" unicode="R" horiz-adv-x="694" 
d="M416 0l-200 282q-20 -11 -37.5 -25t-32.5 -34q-9 -13 -14 -31t-7.5 -37.5t-3 -38t-0.5 -30.5v-86h-121v743h273q37 -3 66.5 -12t51 -21.5t37 -27t25.5 -27.5q26 -35 35 -79.5t-2 -92.5q-8 -34 -24.5 -59t-37.5 -43t-44.5 -30.5t-47.5 -21.5l233 -329h-149zM121 366
q34 24 68 38.5t65 25.5q28 10 47.5 18t32 17t20 20t11.5 27q4 15 3.5 34.5t-13.5 36.5q-24 33 -88 38h-146v-260v5z" />
    <glyph glyph-name="S" unicode="S" horiz-adv-x="625" 
d="M236 -16q-48 0 -91.5 18t-76.5 53q-33 34 -50.5 77.5t-17.5 91.5h123q0 -25 9 -46.5t24 -37t35.5 -24.5t44.5 -9q16 0 35.5 4t37 14.5t29.5 29.5t12 49q0 8 -1.5 23t-14 34t-40.5 41t-80 44q-30 13 -62.5 31t-60 43t-46 59t-19.5 78q-1 39 13 75t42 64q29 30 69 46.5
t85 16.5q43 0 81.5 -16.5t66.5 -45t44.5 -66.5t16.5 -81h-123q0 18 -6.5 33.5t-18.5 27t-27.5 18.5t-33.5 7q-41 0 -65 -25q-17 -15 -17 -51q0 -6 1.5 -15.5t11.5 -23t32 -29.5t63 -35q62 -28 103.5 -55.5t67 -57.5t36.5 -64.5t11 -75.5q0 -33 -7.5 -59.5t-19 -47t-25 -36
t-26.5 -25.5q-64 -52 -165 -52z" />
    <glyph glyph-name="T" unicode="T" horiz-adv-x="583" 
d="M451 742v-111h-192v-631h-121v631h-192v111h505v0z" />
    <glyph glyph-name="U" unicode="U" horiz-adv-x="695" 
d="M259 -16q-54 0 -101 20.5t-82 55.5t-55.5 82t-20.5 101v499h121v-499q0 -29 10.5 -54.5t29.5 -44t44 -29.5t54 -11q28 0 53.5 11t44 29.5t29.5 44t11 54.5v499h120v-499q0 -54 -20.5 -101t-55.5 -82t-82 -55.5t-100 -20.5z" />
    <glyph glyph-name="V" unicode="V" horiz-adv-x="750" 
d="M319 -32l-319 774h126l193 -469l194 469h126l-320 -774v0z" />
    <glyph glyph-name="W" unicode="W" horiz-adv-x="958" 
d="M869 742l-319 -773l-115 280l-116 -280l-319 773h126l193 -468l53 128l-140 340h115l88 -208l88 208h116l-141 -340l52 -128l194 468h125v0z" />
    <glyph glyph-name="X" unicode="X" horiz-adv-x="723" 
d="M587 742l-224 -371l224 -371h-141l-153 254l-153 -254h-140l223 371l-223 371h140l153 -254l153 254h141v0z" />
    <glyph glyph-name="Y" unicode="Y" horiz-adv-x="764" 
d="M586 742l-233 -388v-354h-120v354l-233 388h140l153 -261l154 261h139v0z" />
    <glyph glyph-name="Z" unicode="Z" horiz-adv-x="638" 
d="M135 111h342v-111h-477v61q0 3 3.5 32.5t17 73.5t41 96t75.5 101l-78 59l74 97l103 -79q28 21 48 46t33.5 50.5t21.5 49.5t12 43h-351v112h477v-58q0 -3 -1 -34.5t-14 -78.5t-42.5 -102t-84.5 -104l83 -63l-74 -96l-109 83q-23 -21 -40 -44.5t-29 -47.5t-20.5 -46
t-12.5 -40h2z" />
    <glyph glyph-name="sterling" unicode="&#xa3;" horiz-adv-x="647" 
d="M555 107q-1 -2 -7 -11t-16.5 -21.5t-25.5 -26.5t-35 -27q-56 -37 -123 -37q-62 0 -125 33q-68 36 -116 9q-20 -11 -30 -24t-11 -14l1 1l-107 60q1 2 6.5 10.5t15.5 20t24.5 24.5t33.5 25q12 8 26 14t31 10v100h-97v99h97v47h-97v99h97v1q0 8 1 35.5t11.5 61.5t33 69
t64.5 59q30 17 57 25t50 9.5t42.5 -2t34.5 -8.5q35 -12 60 -34t41.5 -44t25 -40t10.5 -22l-114 -44v-1q-2 6 -7.5 16t-14 20.5t-19.5 19.5t-24 14q-33 12 -81 -15q-20 -11 -29.5 -30t-14 -37.5t-4.5 -32.5v-14v-2v-1v-3h163v-99h-163v-47h163v-99h-163v-103q14 -5 29 -11
t31 -14q70 -37 124 -1q22 14 33.5 29t11.5 16z" />
    <glyph glyph-name="Adieresis" unicode="&#xc4;" horiz-adv-x="731" 
d="M219 812q0 -26 -17.5 -43.5t-43.5 -17.5q-25 0 -43 17.5t-18 43.5q0 25 18 43t43 18q26 0 43.5 -18t17.5 -43zM500 812q0 -26 -17.5 -43.5t-43.5 -17.5q-25 0 -43 17.5t-18 43.5q0 25 18 43t43 18q26 0 43.5 -18t17.5 -43zM433 184h-270l-83 -184h-128l347 775l347 -775
h-128zM386 291l-87 190l-87 -190h174z" />
    <glyph glyph-name="Odieresis" unicode="&#xd6;" horiz-adv-x="855" 
d="M204 812q0 -26 -18 -43.5t-43 -17.5q-26 0 -43.5 17.5t-17.5 43.5q0 25 17.5 43t43.5 18q25 0 43 -18t18 -43zM570 812q0 -26 -18 -43.5t-43 -17.5q-26 0 -43.5 17.5t-17.5 43.5q0 25 17.5 43t43.5 18q25 0 43 -18t18 -43zM326 -16q-80 0 -151 30.5t-123.5 83t-83 123.5
t-30.5 151t30.5 150.5t83 123t123.5 83t151 30.5t150.5 -30.5t123 -83t83 -123t30.5 -150.5t-30.5 -151t-83 -123.5t-123 -83t-150.5 -30.5zM326 638q-56 0 -104.5 -21t-84.5 -57t-57 -84.5t-21 -103.5q0 -56 21 -104.5t57 -84.5t84.5 -57t104.5 -21q55 0 103.5 21t84.5 57
t57 84.5t21 104.5q0 55 -21 103.5t-57 84.5t-84.5 57t-103.5 21z" />
    <glyph glyph-name="Udieresis" unicode="&#xdc;" horiz-adv-x="695" 
d="M232 812q0 -26 -18 -43.5t-43 -17.5q-26 0 -43.5 17.5t-17.5 43.5q0 25 17.5 43t43.5 18q25 0 43 -18t18 -43zM408 812q0 -26 -18 -43.5t-43 -17.5q-26 0 -43.5 17.5t-17.5 43.5q0 25 17.5 43t43.5 18q25 0 43 -18t18 -43zM259 -16q-54 0 -101 20.5t-82 55.5t-55.5 82
t-20.5 101v499h121v-499q0 -29 10.5 -54.5t29.5 -44t44 -29.5t54 -11q28 0 53.5 11t44 29.5t29.5 44t11 54.5v499h120v-499q0 -54 -20.5 -101t-55.5 -82t-82 -55.5t-100 -20.5z" />
    <glyph glyph-name="germandbls" unicode="&#xdf;" horiz-adv-x="626" 
d="M422 485q25 -14 51 -34t47 -48t34 -65t13 -84q0 -107 -68 -172q-15 -15 -37 -30t-53.5 -27t-73 -19t-94.5 -6q-1 0 -1 18.5v41t1 41.5t2 19q40 -1 69 3.5t50 12t34 16t20 15.5q31 31 31 87q0 73 -55 115q-14 11 -35.5 18.5t-41.5 12.5q-24 6 -49 11l28 66q7 18 14.5 38
t15 41t14.5 40.5t13 36.5h-173v-695h-119v409h-59v110h59v285h462l-28 -80q-1 -2 -7.5 -18t-16 -40.5t-22 -56t-25.5 -62.5z" />
    <glyph glyph-name="quotesinglbase" unicode="&#x201a;" horiz-adv-x="340" 
d="M207 -138h-95v240h95v-240z" />
    <glyph glyph-name="quotedblleft" unicode="&#x201c;" horiz-adv-x="370" 
d="M95 502h-95v240h95v-240zM254 502h-95v240h95v-240z" />
    <glyph glyph-name="quotedblright" unicode="&#x201d;" horiz-adv-x="340" 
d="M94 502h-95v240h95v-240zM253 502h-95v240h95v-240z" />
    <glyph glyph-name="quotedblbase" unicode="&#x201e;" horiz-adv-x="321" 
d="M94 -138h-95v240h95v-240zM253 -138h-95v240h95v-240z" />
    <glyph glyph-name="Euro" unicode="&#x20ac;" 
d="M426 105q51 0 98 20.5t83 59.5l89 -81q-54 -59 -123 -89.5t-147 -30.5q-62 0 -117.5 19.5t-102 54.5t-81 83t-53.5 105h-111v107h91v19v18h-91v107h111q19 57 53.5 105t81 83t102 54.5t117.5 19.5q78 0 147.5 -31t123.5 -90l-89 -81q-37 39 -83.5 60t-98.5 21
q-36 0 -69.5 -10t-62.5 -29t-52.5 -45t-39.5 -57h214v-107h-243v-18v-19h243v-107h-214q16 -32 39.5 -57.5t52.5 -44.5t62.5 -29t69.5 -10z" />
    <glyph glyph-name="minus" unicode="&#x2212;" horiz-adv-x="602" 
d="M442 250h-442v117h442v-117z" />
    </font>
</defs>
</svg>
