<svg xmlns="http://www.w3.org/2000/svg" viewBox="0 0 893.99 894" width="80" height="80"><defs><style>.cls-1{fill:#7f7063;}.cls-2{fill:#fddfc5;}</style></defs><title>drink</title><g id="Calque_2" data-name="Calque 2"><g id="Calque_1-2" data-name="Calque 1"><path class="cls-1" d="M446.36,0C199.84,0,0,199.84,0,446.36A446.36,446.36,0,0,0,130.73,762C304.34,937,587,938.15,762,764.54s176.16-456.22,2.55-631.24L762,130.75A443.45,443.45,0,0,0,446.36,0Z"/><path class="cls-2" d="M566.37,425.16C596,394.4,610,358,605.8,322.67c-1.93-16.17-11.82-52.17-24.07-87.54-6.15-17.75-12.08-32.94-17.16-43.9-8-17.25-13.3-23.36-20.3-23.36H349.72c-7,0-12.31,6.11-20.3,23.36-5.08,11-11,26.14-17.16,43.9C300,270.51,290.12,306.5,288.2,322.67c-8.82,74.05,62.68,141.88,134.55,155.94.93,12.81,1.77,48.69,1.28,91.45-.78,68.82-4.24,93.82-6.13,97.68-2.82,5-19.6,11.7-45.16,14.39l-.71.07c-13.66,1.44-39.1,4.12-39.1,24.41,0,9.67,4.55,14.33,8.37,16.55,4.48,2.6,9.84,3,15,3,1.33,0,2.72,0,4.15-.05s2.89-.05,4.39-.05H529.2c1.5,0,3,0,4.39.05s2.82.05,4.15.05c5.77,0,23.35,0,23.35-19.5,0-20.29-25.44-23-39.1-24.41l-.72-.07c-25.56-2.7-42.34-9.43-45.12-14.32-1.93-4-5.26-29-5.49-97.66-.14-44.07,1.12-79.78,2.29-92.09C506.73,470.7,541.28,451.2,566.37,425.16ZM453.87,568.47c.15,62.71,2.72,98.9,7.64,107.57,8.76,15.43,40.09,20.9,58,22.79l.72.07c7.21.76,24.09,2.54,24.09,7.73a7.89,7.89,0,0,1-.22,2.14c-.57.23-2.14.59-6.35.59-1.23,0-2.51,0-3.84-.05-1.52,0-3.09-.06-4.7-.06H364.81c-1.61,0-3.18,0-4.7.06-1.32,0-2.61.05-3.84.05-4.21,0-5.78-.36-6.35-.59a7.77,7.77,0,0,1-.22-2.14c0-5.19,16.88-7,24.09-7.73l.72-.07c17.9-1.89,49.23-7.36,58-22.79,1.82-3.2,7.35-13,8.34-107.92.23-22.47.12-46.14-.32-65-.72-31.09-1.79-33.3-2.73-35.24a8.66,8.66,0,0,0-6.45-4.82c-32.38-5-66.42-23.1-91.05-48.52-26.5-27.34-39.08-59.27-35.43-89.92,3.72-31.27,36.09-126.66,47.21-140H542c11.11,13.35,43.48,108.75,47.21,140,7.72,64.87-59.5,126.38-124.78,138a8.71,8.71,0,0,0-6.37,5C453.7,476.83,453.86,564.73,453.87,568.47Z"/><path class="cls-2" d="M541.19,400.19c11.26-13.7,20.24-25.82,21.83-41.93.13-1.33.35-6.1-4.05-6.1l-224.08,0c-4.82,0-4.06,4.66-3.92,6.08,1.61,16.53,10.85,29,22.51,43.05,19.53,23.47,45.17,38.72,73.7,40.8,4.83.35,12.8.57,20.79.57,7.6,0,14.53-.2,18.52-.54C495.62,439.66,521.64,424,541.19,400.19Z"/></g></g></svg>