<svg enable-background="new 0 0 106 27" viewBox="0 0 106 27" xmlns="http://www.w3.org/2000/svg"><g fill="#58585a"><path d="m37.8 6.2c.2.2.2.4.2.5 0 .2 0 .4-.1.5-.1.2-.2.3-.3.4s-.3.2-.5.2h-1.4v-3.3h1.1c.1 0 .3 0 .4.1s.2.2.3.3.1.3.2.4v.4c0 .1-.1.2-.2.3h.2l.1.1zm-.6-1.1s0-.1-.1-.1-.1 0-.2 0h-.5v1.2l.1-.1.1-.1.1-.1.1-.1c.1 0 .2-.1.3-.1.1-.1.1-.1.1-.2v-.1-.1c.1 0 .1-.1 0-.2zm.3 1.9c0-.1 0-.2 0-.2 0-.1 0-.2-.1-.2l-.1-.2-.1-.1h-.2c-.1.1-.2.1-.3.2s-.2.2-.3.3c0 .1-.1.1-.1.2v.3h.8c.2-.1.3-.1.4-.3z"/><path d="m41.9 7.8-.9-1.3c-.1 0-.1.1-.2.1s-.1.1-.1.1 0 .1-.1.1v.2.2.1.4h-.5v-3.2h1.2c.1 0 .2 0 .3.1.1 0 .2.1.2.1.1 0 .1.1.2.1l.1.1c.1.1.1.2.2.4v.4c0 .1-.1.2-.1.3-.1 0-.1 0-.2.1s-.1.1-.2.1l-.2.1 1 1.5zm-1.3-1.6c.1-.1.2-.2.3-.2l.3-.1.2-.1c.1 0 .1-.1.1-.1.1 0 .1-.1.1-.2s0-.1 0-.2 0-.1-.1-.2c0-.1-.1-.1-.3-.1h-.7z"/><path d="m46.3 7h-1.2l-.4.8h-.6l1.6-3.5 1.6 3.5h-.6zm-.2-.5-.4-.8-.4.9z"/><path d="m49.9 7.9c-.1 0-.3 0-.4-.1s-.2-.1-.3-.2-.2-.3-.2-.4c-.1-.1-.1-.3-.1-.4h.6v.2c0 .1.1.1.1.2 0 0 .1.1.2.1h.2.2c.1 0 .1 0 .2-.1.1 0 .1-.1.1-.1 0-.1.1-.1.1-.2v-.1c0-.1 0-.1-.1-.1-.1-.1-.1-.1-.2-.2s-.2-.1-.4-.2l-.3-.2c-.1-.1-.2-.1-.3-.2s-.2-.2-.2-.3-.1-.2-.1-.3 0-.2.1-.3c0-.1.1-.2.2-.3s.2-.2.3-.2.2-.1.3-.1c.3 0 .5.1.7.3.1.1.2.2.2.3.1.1.1.2.1.4h-.6v-.1s0-.1-.1-.1c0 0-.1-.1-.2-.1h-.1c-.1 0-.2 0-.3.1s-.1.1-.1.2v.1s0 .1.1.1c0 0 .1.1.1.1.1.1.2.1.3.2.2.1.3.2.5.3.1.1.2.2.3.3.1-.1.2 0 .2.1v.3c0 .2 0 .3-.1.5 0 .1-.1.1-.1.2 0 0-.1.1-.1.1-.2.1-.5.2-.8.2z"/><path d="m53.9 7.9c-.1 0-.3 0-.4-.1s-.2-.1-.3-.2-.2-.2-.2-.3c-.1-.1-.1-.3-.1-.4h.6v.2c0 .1.1.1.1.2 0 0 .1.1.2.1h.2c.1 0 .1 0 .2-.1.1 0 .1-.1.2-.1 0-.1 0-.2 0-.2v-.1c0-.1 0-.1-.1-.1-.1-.1-.1-.1-.2-.2s-.2-.1-.4-.2l-.3-.1c-.1-.1-.2-.1-.3-.2s-.1-.2-.2-.2c-.1-.1-.1-.2-.1-.4 0-.1 0-.3.1-.4 0-.1.1-.2.2-.3s.2-.2.3-.2.3-.1.4-.1c.3 0 .5.1.7.3.1.1.2.2.2.3.1.1.1.2.1.4h-.6v-.1s0-.1-.1-.1c0-.3 0-.3-.1-.3h-.1c-.1 0-.2 0-.3.1s-.1.1-.1.2v.1s0 .1.1.1c0 0 .1.1.1.1.1.1.2.1.3.2.2.1.3.2.5.3.1.1.2.2.3.3s.1.2.2.3v.3c0 .2 0 .3-.1.5 0 .1-.1.1-.1.2 0 0-.1.1-.1.1-.3 0-.6.1-.8.1z"/><path d="m57.7 5v.8h1v.5h-1v1.1h1.3v.5h-1.8v-1.7h-.3v-.5h.3v-1.2h1.8v.5z"/><path d="m62.9 7.8-.9-1.3c-.1 0-.1.1-.2.1s-.1.1-.1.1 0 .1-.1.1v.2.2.1.4h-.6v-3.2h1.2c.1 0 .2 0 .3.1.1 0 .2.1.2.1.1 0 .1.1.2.1l.1.1c.1.1.1.2.2.4v.4c0 .1-.1.2-.1.3-.1 0-.1 0-.2.1s-.1.1-.2.1l-.2.1 1 1.5zm-1.4-1.6c.1-.1.2-.2.3-.2l.3-.1.2-.1c.1 0 .1-.1.2-.1 0 0 .1-.1.1-.1s0-.1.1-.1c0-.1 0-.1 0-.2s0-.1-.1-.2-.3-.1-.4-.1h-.7z"/><path d="m65.4 7.8v-3.3h.6v3.3z"/><path d="m68.9 5v.8h1v.5h-1v1.1h1.3v.5h-1.8v-1.7h-.3v-.5h.3v-1.2h1.8v.5z"/><path d="m23.3 22.4c-.8 0-1.7-.2-2.5-.5s-1.5-.8-2-1.4c-.6-.6-1-1.3-1.4-2.1-.3-.8-.5-1.7-.5-2.5 0-1.7.7-3.4 1.9-4.6.6-.6 1.3-1.1 2-1.4.8-.3 1.6-.5 2.5-.5s1.7.2 2.5.5c.8.4 1.5.9 2.1 1.5l-1.5 1.4c-.4-.4-.9-.8-1.4-1s-1.1-.4-1.7-.4-1.1.1-1.7.4c-.5.2-1 .6-1.4 1-.8.9-1.3 2-1.3 3.2 0 .6.1 1.2.3 1.8.2.5.5 1 .9 1.4s.8.7 1.4 1c.5.2 1.1.4 1.7.4s1.1-.1 1.7-.3c.5-.2 1-.6 1.4-1l1.5 1.4c-.6.6-1.3 1.2-2.1 1.5-.7 0-1.5.2-2.4.2z"/><path d="m36.8 19h-4.6l-1.4 3.1h-2.2l6-13.1 5.9 13.1h-2.2zm-.8-1.8-1.4-3.2-1.5 3.2z"/><path d="m49.3 22.1-3.4-4.8c-.2.1-.4.3-.6.4-.2.2-.4.4-.6.6-.1.2-.2.3-.2.5-.1.2-.1.4-.1.6v.6.5 1.5h-2v-12.4h4.6c.4 0 .8.1 1.1.2s.6.2.9.4c.2.1.4.3.6.5.2.1.3.3.4.5.3.4.5.9.6 1.4s.1 1 0 1.6c-.1.4-.2.7-.4 1s-.4.5-.6.7-.5.4-.8.5-.5.3-.8.4l3.9 5.6zm-5-6.2c.4-.3.7-.5 1.1-.7s.8-.3 1.1-.4.6-.2.8-.3.4-.2.5-.3.2-.2.3-.3.2-.3.2-.5.1-.4.1-.6-.1-.4-.2-.6c-.4-.4-.9-.7-1.5-.6h-2.5v4.3z"/><path d="m56.1 13.9v8.2h-1.9v-13.1l8.1 8.7v-8.1h1.9v13.1z"/><path d="m73.3 22.4c-.9 0-1.7-.2-2.6-.5-1.6-.7-2.8-1.9-3.5-3.5s-.7-3.5 0-5.1 1.9-2.8 3.5-3.5 3.5-.7 5.1 0 2.8 1.9 3.5 3.5.7 3.5 0 5.1-1.9 2.8-3.5 3.5c-.7.3-1.6.5-2.5.5zm0-11.1c-.6 0-1.2.1-1.8.4-1.1.5-1.9 1.3-2.4 2.4s-.5 2.4 0 3.5 1.3 1.9 2.4 2.4 2.4.5 3.5 0 2-1.3 2.4-2.4c.5-1.1.5-2.4 0-3.5s-1.3-1.9-2.4-2.4c-.5-.2-1.1-.4-1.7-.4z"/><path d="m89 11.5h-3.3v10.7h-2v-10.7h-3.3v-1.9h8.6z"/></g></svg>